<svg xmlns="http://www.w3.org/2000/svg" width="100" height="32" viewBox="0 0 26.458 8.467"><path d="M-35.911 29.342c-1.493-.486-2.703-1.47-3.517-2.859-.558-.95-.69-1.49-.694-2.839-.007-2.008.603-3.337 2.132-4.646 1.842-1.576 4.757-1.873 6.766-.688.49.289.913.492.94.452.028-.04.194-.43.367-.867 1.297-3.263 5.74-3.264 6.986 0 1.043 2.73-1.336 5.417-4.303 4.86-.882-.165-.886-.161-.886.766 0 3.096-2.443 5.778-5.523 6.064-.652.06-1.672-.048-2.268-.242zm15.173-12.444c-2.154-.906-1.513-4.158.82-4.158 1.29 0 2.227.89 2.227 2.117 0 1.709-1.48 2.7-3.047 2.041zM-47.177 7.06c-4.683-1.67-6.275-7.494-3.072-11.236 3.147-3.677 9.337-2.962 11.55 1.334l.514.998.504-.69c.72-.99 2.237-1.687 3.67-1.687 3.572 0 5.637 3.745 3.797 6.886-1.528 2.607-5.042 2.98-7.14.758l-.738-.782-.723 1.267c-.74 1.295-2.355 2.642-3.814 3.18-1.093.403-3.38.388-4.548-.029zm21.668-4.18c-.998-.608-1.345-1.231-1.345-2.413 0-2.798 3.134-4.123 5.1-2.157.596.595.722.937.722 1.95 0 1.389-.437 2.175-1.522 2.736-.991.513-1.988.474-2.955-.116zm2.426-12.738c-3.088-2.062-1.653-6.863 2.051-6.863s5.139 4.8 2.051 6.863c-.59.394-1.234.575-2.05.575-.818 0-1.462-.18-2.052-.575zm-10.732-5.98c-1.744-.808-3.164-2.804-3.164-4.449 0-.788-.039-.789-1.208-.018-1.36.897-3.862 1.48-5.46 1.273-2.912-.378-5.744-2.306-7.007-4.877-.617-1.256-.806-2.467-.817-3.875-.01-1.236.191-2.511.866-3.844.941-1.857 2.765-3.518 4.641-4.225 1.182-.446 1.907-.546 3.669-.46 2.194.108 3.414.536 5.122 1.8 1.977 1.46 3.435 5.08 3.107 7.71-.161 1.285-.14 1.375.292 1.19.256-.11 1.149-.249 1.984-.308 1.254-.09 1.718-.003 2.658.5 3.213 1.716 3.759 6.22 1.057 8.723-1.48 1.372-3.862 1.728-5.74.859zm22.68-6.309c-1.236-.455-2.014-1.078-2.538-2.16-.882-1.823-.63-3.66.694-5.06.995-1.05 1.885-1.433 3.338-1.433 3.44 0 5.448 3.388 4.051 6.454-.562 1.233-1.357 1.776-2.664 2.246-1.169.306-2.034.232-2.88-.047zm15.882-4.636c-1.336-.374-2.882-1.801-3.388-3.127-1.353-3.542 1.127-7.218 4.87-7.218 1.763 0 3.074.655 3.982 1.672.808.904 1.458 1.936 1.405 3.77-.045 1.544-.534 2.505-1.722 3.693-1.183 1.183-3.386 1.704-5.147 1.21zm-24.976-7.015c-1.527-.545-3.102-1.94-3.813-3.49-.577-1.257-.86-3.882-.443-5.22l.217-.696h-1.753c-2.236 0-3.892-.496-5.827-1.747-4.802-3.104-6.276-9.683-3.287-14.672 1.056-1.762 2.687-3.203 4.737-4.184 1.546-.74 3.25-1.072 4.556-1.087 1.42-.016 3.005.345 4.626 1.112 5.603 2.654 7.813 9.3 4.932 14.827-.452.866-.86 1.66-.907 1.764-.047.104.18.192.505.195 1.69.016 4.191 1.985 5.084 4.005 1.033 2.334.469 5.624-1.28 7.468-1.773 1.87-4.89 2.6-7.347 1.724zm23.68-8.908c-4.263-1.07-7.339-5.425-6.929-9.81.177-1.897 1.007-3.855 2.217-5.233.527-.6.743-1.02.557-1.081-.887-.296-3.387-2.165-4.392-3.284-2.338-2.603-3.532-5.751-3.532-9.314 0-6.297 3.98-11.57 10.108-13.388 1.72-.51 5.481-.531 7.325-.041 3.14.835 6.361 3.198 8.139 5.968 2.529 3.94 2.801 9.147.712 13.598-.833 1.775-3.003 4.26-4.748 5.44-.637.43-1.33.967-1.367.994-.038.026.478.328.975.87s1.21 1.613 1.587 2.379c.605 1.231.894 2.363.895 3.9 0 1.79-.662 4.263-2.608 6.321-1.696 1.793-3.773 2.746-6.208 2.847-.975.041-2.204-.033-2.73-.166z" fill="#0d3653" opacity=".989" style="fill:#fff;fill-opacity:1" transform="matrix(.0559 0 0 .0559 3.747 5.656)"/><path class="fil0" style="display:inline;fill:none;stroke-width:1.07655" d="M4.83 3.168h5.077v5.014H4.83z"/><g aria-label="circabc" style="font-style:normal;font-weight:400;font-size:5.25454px;line-height:1.25;font-family:sans-serif;fill:#0d3653;fill-opacity:1;stroke:none;stroke-width:.131363"><g aria-label="circabc share" style="font-style:normal;font-weight:400;font-size:4.26008px;line-height:1.25;font-family:sans-serif;fill:#0d3653;fill-opacity:1;stroke:none;stroke-width:.0139904"><path d="M10.54 2.902c-.166.073-.306.09-.417.09-.307 0-.533-.166-.533-.571 0-.4.188-.562.533-.562a.98.98 0 0 1 .417.089.069.069 0 0 0 .039.013c.02 0 .038-.009.046-.026l.073-.179c.004-.008.004-.021.004-.03a.08.08 0 0 0-.038-.063 1.179 1.179 0 0 0-.58-.124c-.57 0-.869.311-.869.882 0 .562.299.89.87.89.183 0 .383-.025.579-.132a.08.08 0 0 0 .038-.064c0-.008 0-.021-.004-.03l-.073-.17c-.008-.017-.025-.025-.046-.025a.069.069 0 0 0-.039.012zM11.051 3.209c0 .047.035.08.081.08h.213c.047 0 .081-.033.081-.08V1.646a.078.078 0 0 0-.08-.081h-.214a.078.078 0 0 0-.08.08zM12.87 1.931a.069.069 0 0 0 .039.013c.021 0 .038-.009.047-.026l.072-.179c.004-.008.004-.021.004-.03a.08.08 0 0 0-.038-.063.842.842 0 0 0-.434-.107c-.188 0-.46.021-.64.14-.042.026-.068.056-.068.094V3.21c0 .047.034.08.081.08h.213c.047 0 .081-.033.081-.08V1.991c.034-.12.247-.132.35-.132a.71.71 0 0 1 .294.072zM14.528 2.902c-.166.073-.307.09-.418.09-.307 0-.532-.166-.532-.571 0-.4.187-.562.532-.562a.98.98 0 0 1 .418.089.069.069 0 0 0 .038.013c.021 0 .038-.009.047-.026l.072-.179c.005-.008.005-.021.005-.03a.08.08 0 0 0-.039-.063 1.179 1.179 0 0 0-.58-.124c-.57 0-.868.311-.868.882 0 .562.298.89.869.89.183 0 .383-.025.58-.132a.08.08 0 0 0 .038-.064c0-.008 0-.021-.005-.03l-.072-.17c-.009-.017-.026-.025-.047-.025a.069.069 0 0 0-.038.012zM16.07 2.809s-.15.183-.337.183c-.213 0-.421-.081-.421-.503 0-.4.153-.63.758-.63zm.31-1.206a1.423 1.423 0 0 0-.464-.064c-.579 0-.984.311-.984.907 0 .537.239.865.682.865.06 0 .273 0 .434-.157l.077.102a.08.08 0 0 0 .064.034h.179c.047 0 .08-.034.08-.081V1.675c0-.038-.029-.06-.067-.072zM18.072 2.395c0 .4-.136.597-.477.597-.038 0-.222 0-.345-.077v-.941a.637.637 0 0 1 .328-.115c.273 0 .494.127.494.536zm-1.197.729c0 .038.03.055.068.072.2.085.443.115.64.115.57 0 .868-.353.868-.916 0-.562-.336-.856-.758-.856-.043 0-.286 0-.443.09V.95a.078.078 0 0 0-.081-.08h-.213a.078.078 0 0 0-.081.08zM20.074 2.902c-.166.073-.306.09-.417.09-.307 0-.533-.166-.533-.571 0-.4.188-.562.533-.562a.98.98 0 0 1 .417.089.069.069 0 0 0 .039.013c.02 0 .038-.009.046-.026l.073-.179c.004-.008.004-.021.004-.03a.08.08 0 0 0-.038-.063 1.179 1.179 0 0 0-.58-.124c-.57 0-.869.311-.869.882 0 .562.299.89.87.89.183 0 .383-.025.579-.132a.08.08 0 0 0 .038-.064c0-.008 0-.021-.004-.03l-.073-.17c-.008-.017-.025-.025-.046-.025a.069.069 0 0 0-.039.012zM21.416 3.222a1.9 1.9 0 0 0 .545.09c.49 0 .767-.184.767-.525 0-.686-1.026-.396-1.026-.754 0-.153.187-.174.485-.174.043 0 .183.017.298.03.018 0 .056 0 .06-.047.004-.06.017-.175.017-.18 0-.025-.013-.059-.047-.068a2.957 2.957 0 0 0-.473-.055c-.545 0-.724.226-.724.503 0 .711 1.027.396 1.027.758 0 .192-.277.192-.392.192-.09 0-.32-.03-.477-.068-.017 0-.047 0-.06.046a6.481 6.481 0 0 0-.047.184c0 .025.013.06.047.068zM24.16 3.209c0 .047.034.08.08.08h.214c.046 0 .08-.033.08-.08V2.31c0-.43-.14-.77-.63-.77-.064 0-.273 0-.481.127V.95a.078.078 0 0 0-.081-.08h-.213a.078.078 0 0 0-.081.08V3.21c0 .047.034.08.08.08h.214c.047 0 .08-.033.08-.08V2.042s.18-.183.397-.183c.209 0 .34.038.34.468zM25.97 2.809s-.149.183-.336.183c-.213 0-.422-.081-.422-.503 0-.4.153-.63.758-.63zm.311-1.206a1.423 1.423 0 0 0-.464-.064c-.58 0-.984.311-.984.907 0 .537.238.865.681.865.06 0 .273 0 .435-.157l.077.102a.08.08 0 0 0 .063.034h.18c.046 0 .08-.034.08-.081V1.675c0-.038-.03-.06-.068-.072zM27.794 1.931a.069.069 0 0 0 .038.013c.021 0 .038-.009.047-.026l.072-.179c.004-.008.004-.021.004-.03a.08.08 0 0 0-.038-.063.842.842 0 0 0-.434-.107c-.188 0-.46.021-.64.14-.042.026-.068.056-.068.094V3.21c0 .047.034.08.081.08h.213c.047 0 .081-.033.081-.08V1.991c.034-.12.247-.132.35-.132a.71.71 0 0 1 .294.072zM29.391 2.89a1.277 1.277 0 0 1-.469.102c-.294 0-.485-.18-.485-.413.226.076.362.085.477.085.366 0 .656-.15.656-.584 0-.294-.251-.54-.703-.54-.567 0-.805.344-.805.868 0 .562.277.903.843.903.188 0 .426-.021.61-.145a.08.08 0 0 0 .038-.063c0-.009 0-.022-.004-.03l-.073-.17c-.008-.018-.025-.026-.047-.026a.069.069 0 0 0-.038.013zm-.524-1.031c.17 0 .328.05.328.26 0 .166-.128.225-.366.225a.715.715 0 0 1-.392-.12c.055-.263.221-.365.43-.365z" style="font-style:normal;font-variant:normal;font-weight:400;font-stretch:normal;font-family:'Mairy Book';-inkscape-font-specification:'Mairy Book, ';fill:#fff;fill-opacity:1;stroke-width:.0139904" transform="matrix(1.0913 0 0 1.0913 -6.665 2.92)"/></g></g></svg>